<?xml version="1.0" encoding="UTF-8"?>
<svg xmlns="http://www.w3.org/2000/svg" version="1.1" width="100" height="100" viewBox="0 0 100 100"><rect x="0" y="0" width="100" height="100" fill="#ffffff"/><g transform="scale(4)"><g transform="translate(2,2)"><path fill-rule="evenodd" d="M10 0L10 1L8 1L8 2L10 2L10 3L8 3L8 4L9 4L9 5L8 5L8 7L9 7L9 8L6 8L6 9L7 9L7 10L4 10L4 12L3 12L3 13L4 13L4 12L6 12L6 13L7 13L7 12L10 12L10 16L8 16L8 21L11 21L11 18L10 18L10 16L11 16L11 17L12 17L12 21L13 21L13 20L14 20L14 21L15 21L15 20L18 20L18 21L20 21L20 20L21 20L21 19L19 19L19 20L18 20L18 19L16 19L16 18L14 18L14 16L13 16L13 17L12 17L12 16L11 16L11 15L12 15L12 14L14 14L14 15L15 15L15 17L16 17L16 16L17 16L17 18L20 18L20 17L21 17L21 15L20 15L20 14L19 14L19 12L18 12L18 13L17 13L17 14L19 14L19 15L20 15L20 17L18 17L18 15L16 15L16 13L15 13L15 14L14 14L14 13L13 13L13 12L16 12L16 10L14 10L14 8L13 8L13 9L12 9L12 8L11 8L11 10L12 10L12 11L8 11L8 10L10 10L10 9L9 9L9 8L10 8L10 7L11 7L11 6L12 6L12 7L13 7L13 6L12 6L12 5L13 5L13 0ZM11 1L11 2L12 2L12 1ZM10 3L10 5L9 5L9 7L10 7L10 6L11 6L11 5L12 5L12 3ZM0 8L0 9L1 9L1 10L0 10L0 11L3 11L3 10L2 10L2 9L5 9L5 8ZM15 8L15 9L16 9L16 8ZM17 8L17 10L18 10L18 11L19 11L19 10L20 10L20 11L21 11L21 10L20 10L20 8L19 8L19 9L18 9L18 8ZM13 10L13 11L14 11L14 10ZM6 11L6 12L7 12L7 11ZM11 12L11 14L12 14L12 12ZM8 13L8 15L9 15L9 13ZM13 18L13 19L14 19L14 18ZM9 19L9 20L10 20L10 19ZM0 0L0 7L7 7L7 0ZM1 1L1 6L6 6L6 1ZM2 2L2 5L5 5L5 2ZM14 0L14 7L21 7L21 0ZM15 1L15 6L20 6L20 1ZM16 2L16 5L19 5L19 2ZM0 14L0 21L7 21L7 14ZM1 15L1 20L6 20L6 15ZM2 16L2 19L5 19L5 16Z" fill="#c70039"/></g></g></svg>
